<svg width="171" height="43" fill="none" xmlns="http://www.w3.org/2000/svg"><g clip-path="url(#clip0_63_83)" fill="#FF630C"><path d="M22.588 13.602l-5.067-8.161.515-1.404 10.908-2.37c.515-.087.773.088.43.615l-5.927 11.232c-.258.527-.601.44-.859.088z"/><path d="M22.932 8.512V1.755c0-.526-.172-.877-.773-.965L14.773 0c-.602-.088-.688.351-.688.79l.86 8.073c0 .351.257.702.686.702h.172l6.527-.35c.43.087.602-.176.602-.703zM12.54 37.296c1.545 0 2.748 1.229 2.748 2.808 0 1.58-1.203 2.808-2.749 2.808s-2.748-1.228-2.748-2.808c0-1.58 1.202-2.808 2.748-2.808zm-6.786-.351c4.295-1.404 8.933-2.808 13.227-4.212.601-.176.859-.439.859-1.492l.257-11.057 4.896-2.545c.43-.176.601-.79.43-1.229-.172-.438-.774-.614-1.203-.438l-4.81 2.545c-.6.35-.944.965-1.03 1.667l-.086 1.667L1.03 23.255c-.601 0-1.03.615-1.03 1.229 0 .175.086.263.086.439l4.037 11.145c.257.702.944 1.053 1.631.877zm15.202-3.773c.773 0 1.46.702 1.46 1.491 0 .79-.687 1.492-1.46 1.492-.773 0-1.46-.702-1.46-1.492s.687-1.491 1.46-1.491zM35.385.263l-.944.527-1.289-.263c-.343-.088-.343 0-.343.263l.171.965-1.116.966c-.172.175-.086.35.172.35l1.717-.087.86.965c.171.176.343.088.429-.088l.515-1.228 1.89-.614c.257 0 .257-.264 0-.264l-1.718-.526v-.79c0-.439-.172-.351-.344-.176z"/><path d="M8.417 12.373l-1.203 5.353-5.668 2.72c-.43.176-.43.615-.086.79l4.466 2.546-1.03 7.546c-.086.352.257.615.687.176l5.84-6.143 6.012 1.14c.773.176.687-.35.515-.613l-2.834-5.792 4.38-7.108c.258-.44 0-.79-.43-.615l-7.214 2.984-2.834-3.335c-.258-.35-.515 0-.601.351z"/><path d="M4.638 22.992l1.288.702-1.03 7.547c-.086.351.257.614.687.175l5.84-6.142 6.012 1.14c.773.176.687-.35.515-.614l-1.89-3.861-11.422 1.053zm18.294-14.48V2.984l-5.411 1.14c-.43.088-.43.615-.258.878l2.749 4.388 2.233-.088c.515 0 .687-.263.687-.79zm51.703 16.41l1.976-9.126c-1.546-.351-3.092-.614-4.638-.614-2.49 0-4.294.614-5.669 2.281-2.319 2.72-3.006 6.758-4.208 8.776-.515.877-3.264 1.404-4.037 1.053 0 0 .172-1.14.43-2.018l.43-1.756c.257-1.14.429-2.281.515-3.422 0-4.037-3.35-4.826-6.013-4.826-1.975 0-3.864.438-5.668 1.228l.601 3.072c1.374-.615 2.834-.966 4.294-.966 1.976 0 2.577.79 2.577 1.93 0 .088 0 .44-.086.703h-1.46c-2.748 0-5.239.526-6.87 2.018-1.117 1.053-1.719 2.457-1.633 4.037-.086 2.194 1.546 4.124 3.78 4.212h.515a5.83 5.83 0 004.638-2.633c.257 1.931 1.803 2.72 3.693 2.633 2.49-.088 6.699-.877 7.987-3.773 1.203-2.545 2.061-5.441 3.436-7.547.429-.79 1.288-1.229 2.147-1.229h.43l-1.375 6.23c-.515 2.195-.258 4.564.859 6.582l3.95-1.491a7.262 7.262 0 01-.515-5.354m-20.269-.438a4.326 4.326 0 01-3.779 3.334c-.945 0-1.46-.438-1.46-1.404 0-.526.172-1.053.601-1.404.687-.702 1.976-1.053 3.951-1.053h.859l-.172.527zm56.599.438l1.976-9.302h-4.037l-4.123 5.002c-.687.79-1.374 1.58-1.889 2.458h-.172a78.613 78.613 0 00-2.92-7.46h-3.35c-.773 4.037-1.631 8.337-2.662 10.268-.515 1.053-3.35 2.018-4.38 1.667.086-.79.257-1.492.43-2.281l.429-1.756c.257-1.14.429-2.281.515-3.422 0-4.037-3.35-4.826-6.012-4.826-1.975 0-3.865.438-5.669 1.228l.602 3.072c1.374-.615 2.834-.966 4.294-.966 1.975 0 2.576.79 2.576 1.93 0 .264 0 .44-.085.703h-1.46c-2.749 0-5.24.526-6.871 2.018-1.117 1.053-1.718 2.457-1.632 4.037-.086 2.194 1.546 4.124 3.779 4.212h.515a5.83 5.83 0 004.638-2.633c.43 3.423 6.87 3.072 9.447 1.317 1.804-1.229 2.491-2.808 3.178-5.002a31.56 31.56 0 00.687-2.72h.086c.773 1.755 1.46 3.948 1.976 5.528h1.803l2.749-3.335c.515-.614 1.288-1.58 1.717-2.194h.086c-.773 2.809-1.889 6.407-.086 9.302l4.123-1.58c-.601-1.754-.773-3.597-.258-5.265zm-24.907-.438a4.326 4.326 0 01-3.779 3.334c-.945 0-1.546-.438-1.546-1.404 0-.526.172-1.053.601-1.404.688-.702 1.976-1.053 3.951-1.053h.859l-.086.527zm55.569-9.127c-2.233-.526-4.209.176-6.012 2.72a5.106 5.106 0 00-.773-3.159l-3.608 1.405c.43.965.602 2.018.43 2.983l-1.632 7.81c-.945.527-3.779.79-4.123.351.172-1.14.602-2.72.945-4.036.258-1.141.43-2.282.516-3.423 0-4.036-3.35-4.826-6.013-4.826-1.975 0-3.864.438-5.668 1.228l.601 3.072c1.374-.615 2.834-.966 4.295-.966 1.975 0 2.576.79 2.576 1.931 0 .088 0 .439-.086.702h-1.46c-2.748 0-5.239.527-6.785 2.018-1.116 1.053-1.718 2.458-1.632 4.037-.086 2.194 1.546 4.125 3.779 4.212h.516a5.828 5.828 0 004.637-2.632c-.085.965 3.178 3.685 7.301 2.106l-1.718 7.986h4.294l1.718-7.898a8.679 8.679 0 003.006.526c4.982 0 8.503-3.861 8.675-9.477.086-2.896-.859-5.968-3.522-6.582m-19.41 9.127a4.325 4.325 0 01-3.779 3.334c-.945 0-1.46-.439-1.46-1.404 0-.526.172-1.053.601-1.404.687-.702 1.976-1.053 3.951-1.053h.859l-.172.526zm18.466-2.194c-.086 2.896-1.804 5.44-4.724 5.44-.687 0-1.288-.175-1.89-.35l.602-3.423c.858-4.914 6.269-7.371 6.012-1.667zm4.809 8.687h4.295l1.288-5.791c.258-1.58.859-2.984 1.718-4.3.687-1.053 1.717-1.756 3.006-1.843.773 0 1.116.439 1.116 1.228a5.09 5.09 0 01-.257 1.58l-1.976 9.126h4.294l1.289-5.791c.257-1.58.859-3.072 1.803-4.3.687-1.053 1.718-1.756 3.006-1.843.687 0 1.117.439 1.117 1.228 0 .527-.086 1.053-.258 1.58l-1.288 5.967c-.344 1.404-.258 2.984.429 4.3l4.037-1.492a5.335 5.335 0 01-.172-3.071l1.203-5.529c.257-1.14.429-2.281.515-3.422 0-2.194-1.46-3.335-3.607-3.335-2.405 0-4.552 1.755-5.841 3.423h-.085c0-2.282-1.289-3.423-3.35-3.423-2.319 0-4.466 1.668-5.668 3.335h-.086c.171-1.229 0-2.457-.43-3.598l-3.779 1.404c.344.965.43 1.93.258 2.896l-2.577 11.671z"/><path d="M43.459 8.775c-1.46 0-5.669 0-6.7 4.564l-3.864 17.726h4.98l3.35-15.884c.258-1.14.602-2.193 2.405-2.106h7.043l.773-4.3h-7.987z"/></g><defs><clipPath id="clip0_63_83"><path fill="#fff" d="M0 0h171v43H0z"/></clipPath></defs></svg>