<svg width="326" height="85" fill="none" xmlns="http://www.w3.org/2000/svg"><path d="M171.089 15.068a.97.97 0 01.676.943v32.841a.926.926 0 01-.753.865l-3.399 1.02.108 1.206c2.337 0 4.613-.078 6.858-.078h6.951c4.059 0 8.488 0 13.27.078l.154-.186.615-9.968-1.245.201-3.552 7.356h-13.471V15.872a.9.9 0 01.707-.866l3.445-1.02-.108-1.205c-2.368.077-4.613.108-6.873.108-2.261 0-4.491 0-6.859-.108v1.205l3.476 1.082zm45.224 37.694c6.52 0 11.59-1.953 15.209-5.858 3.618-3.904 5.433-9.056 5.443-15.454 0-6.038-1.697-10.808-5.09-14.311s-8.181-5.25-14.362-5.24c-6.459 0-11.508 1.87-15.147 5.61-3.639 3.74-5.485 8.805-5.536 15.193 0 6.182 1.697 11.065 5.09 14.65 3.393 3.586 8.171 5.39 14.332 5.41m-10.057-34.217c2.153-2.926 5.597-4.384 10.334-4.373 4.89 0 8.508 1.576 10.856 4.729 2.337 3.09 3.506 7.65 3.506 13.523 0 6.243-1.102 10.828-3.306 13.754-2.199 2.921-5.628 4.374-10.257 4.374a12.553 12.553 0 01-5.977-1.07 12.62 12.62 0 01-4.787-3.752c-2.44-3.215-3.66-7.851-3.66-13.91 0-6.057 1.077-10.488 3.23-13.29m53.159 34.232c6.5 0 11.569-1.953 15.208-5.858 3.64-3.904 5.449-9.056 5.428-15.454 0-6.038-1.691-10.808-5.074-14.311s-8.176-5.25-14.378-5.24c-6.458 0-11.507 1.87-15.147 5.61-3.639 3.74-5.453 8.805-5.443 15.193 0 6.182 1.691 11.065 5.074 14.65 3.383 3.586 8.166 5.39 14.347 5.41m-10.195-34.217c2.153-2.926 5.598-4.384 10.334-4.373 4.89 0 8.519 1.545 10.856 4.729 2.338 3.183 3.522 7.65 3.522 13.523 0 6.243-1.108 10.828-3.322 13.754s-5.633 4.384-10.257 4.374a12.57 12.57 0 01-5.976-1.071 12.635 12.635 0 01-4.788-3.751c-2.429-3.215-3.66-7.851-3.66-13.91 0-6.057 1.077-10.37 3.23-13.29m56.219-3.833c.492.124.754.371.754.742a2.944 2.944 0 01-.815 1.546 42.99 42.99 0 01-2.092 2.503l-11.164 12.488 9.227 12.209a60.642 60.642 0 015.121 7.541h9.749v-1.19l-2.507-.788a5.332 5.332 0 01-2.03-1.004 10.783 10.783 0 01-1.537-1.716l-12.61-16.69 11.072-12.24a34.66 34.66 0 011.984-2.04 5.911 5.911 0 012.199-1.283l2.614-.773v-1.206c-1.907.078-3.937.109-6.151.109s-4.29 0-6.151-.109v1.283l2.337.618z" fill="#fff"/><path d="M285.804 46.255v2.504a.914.914 0 01-.754.85l-3.398 1.02.107 1.206h13.456v-1.206l-3.076-.958a.967.967 0 01-.526-.354.981.981 0 01-.197-.604V15.825a.865.865 0 01.723-.85l3.076-.973-.139-1.206c-2.168.078-4.367.109-6.566.109s-4.475 0-6.858-.109v1.206l3.444 1.082a.938.938 0 01.661.942v30.337" fill="#fff"/><path d="M0 63.843h326V0H0v63.843zm29.217-32.78c1.123-7.124 3.921-12.363 8.427-15.81a23.378 23.378 0 0114.424-5.13 22.874 22.874 0 019.075 1.642 22.964 22.964 0 017.701 5.096 22.335 22.335 0 015.113 7.563 22.429 22.429 0 011.669 8.989 22.647 22.647 0 01-1.672 8.959 22.554 22.554 0 01-5.063 7.562 22.322 22.322 0 01-7.531 5.12 22.23 22.23 0 01-8.939 1.68 22.725 22.725 0 01-15.914-6.07 22.95 22.95 0 01-7.29-15.459h-7.689v20.431h-4.46V11.251h4.46v19.813h7.689zm77.856-2.008v4.342H85.098v21.42h-4.413V10.432h4.413v18.623h21.975zm38.566 25.762h-4.613v-34l-29.125 34h-.984V10.432h4.413v34.602l29.217-34.602h.984l.108 44.385zm177.931 6.646H157.495V2.38H323.57v59.083z" fill="#fff"/><path d="M52.283 52.422c2.485.03 4.95-.443 7.25-1.39a18.539 18.539 0 006.136-4.122 18.647 18.647 0 004.05-6.2 18.721 18.721 0 001.324-7.297c.07-2.54-.398-5.067-1.374-7.412a17.93 17.93 0 00-4.284-6.188 18.447 18.447 0 00-6.02-3.993 18.372 18.372 0 00-7.082-1.37 18.004 18.004 0 00-7.045 1.397 18.08 18.08 0 00-5.949 4.043 18.35 18.35 0 00-4.235 6.277 18.427 18.427 0 00-1.347 7.462 17.899 17.899 0 001.343 7.308 17.821 17.821 0 004.193 6.122 18.137 18.137 0 005.98 4.006 18.09 18.09 0 007.06 1.357z" fill="#fff"/></svg>