<svg width="30" height="31" fill="none" xmlns="http://www.w3.org/2000/svg"><path fill-rule="evenodd" clip-rule="evenodd" d="M19.276.025c2.779.186 5.397 1.412 7.365 3.448 1.97 2.034 3.155 4.739 3.335 7.61a12.11 12.11 0 01-2.358 7.989c-1.7 2.279-4.144 3.84-6.877 4.392a11.141 11.141 0 01-7.97-1.394l-7.79 8.047A2.87 2.87 0 012.916 31a2.87 2.87 0 01-2.063-.883A3.066 3.066 0 010 27.985c0-.8.307-1.566.855-2.131l7.787-8.047A12.174 12.174 0 017.29 9.57c.534-2.825 2.045-5.352 4.25-7.108A11.203 11.203 0 0119.277.025zm7.04 11.82c0 4.437-3.481 8.034-7.776 8.034s-7.776-3.597-7.776-8.035c0-4.437 3.481-8.035 7.776-8.035s7.776 3.598 7.776 8.035z" fill="#fff" fill-opacity=".5"/></svg>