<svg width="326" height="85" viewBox="0 0 326 85" fill="none" xmlns="http://www.w3.org/2000/svg">
<path d="M171.089 15.0682C171.287 15.1313 171.46 15.2571 171.582 15.427C171.704 15.5968 171.768 15.8016 171.765 16.0109C171.765 16.6291 171.765 17.3091 171.765 18.0664C171.765 18.8237 171.765 19.6891 171.765 20.6318V43.2727C171.765 44.3855 171.765 45.4055 171.765 46.3636C171.765 47.3218 171.765 48.11 171.765 48.8518C171.755 49.0603 171.675 49.2591 171.538 49.4161C171.401 49.5732 171.216 49.6793 171.012 49.7173L167.613 50.7373L167.721 51.9427C170.058 51.9427 172.334 51.8655 174.579 51.8655H181.53C185.589 51.8655 190.018 51.8655 194.8 51.9427L194.954 51.7573L195.569 41.7891L194.324 41.99L190.772 49.3464H177.301C177.301 47.3527 177.301 45.3282 177.301 43.2573V20.5237C177.301 20.5237 177.301 19.9518 177.301 18.7155C177.301 17.4791 177.301 16.5209 177.301 15.8719C177.304 15.6683 177.375 15.4717 177.504 15.3144C177.632 15.1571 177.81 15.0485 178.008 15.0064L181.453 13.9864L181.345 12.7809C178.977 12.8582 176.732 12.8891 174.472 12.8891C172.211 12.8891 169.981 12.8891 167.613 12.7809V13.9864L171.089 15.0682Z" fill="white"/>
<path d="M216.313 52.7617C222.833 52.7617 227.903 50.8093 231.522 46.9045C235.14 42.9996 236.955 37.8481 236.965 31.4499C236.965 25.4124 235.268 20.6421 231.875 17.139C228.482 13.636 223.694 11.8896 217.513 11.8999C211.054 11.8999 206.005 13.7699 202.366 17.5099C198.727 21.2499 196.881 26.3139 196.83 32.7018C196.83 38.8836 198.527 43.7672 201.92 47.3527C205.313 50.9381 210.091 52.7411 216.252 52.7617M206.195 18.5454C208.348 15.6193 211.792 14.1615 216.529 14.1718C221.419 14.1718 225.037 15.7481 227.385 18.9009C229.722 21.9918 230.891 26.5508 230.891 32.4236C230.891 38.6672 229.789 43.252 227.585 46.1781C225.386 49.099 221.957 50.5517 217.328 50.5517C215.279 50.6899 213.227 50.3228 211.351 49.4824C209.475 48.6421 207.832 47.3539 206.564 45.7299C204.124 42.5154 202.904 37.879 202.904 31.8208C202.904 25.7627 203.981 21.3324 206.134 18.5299" fill="white"/>
<path d="M259.293 52.7617C265.793 52.7617 270.862 50.8093 274.501 46.9045C278.141 42.9996 279.95 37.8481 279.929 31.4499C279.929 25.4124 278.238 20.6421 274.855 17.139C271.472 13.636 266.679 11.8896 260.477 11.8999C254.019 11.8999 248.97 13.7699 245.33 17.5099C241.691 21.2499 239.877 26.3139 239.887 32.7018C239.887 38.8836 241.578 43.7672 244.961 47.3527C248.344 50.9381 253.127 52.7411 259.308 52.7617M249.113 18.5454C251.266 15.6193 254.711 14.1615 259.447 14.1718C264.337 14.1718 267.966 15.7172 270.303 18.9009C272.641 22.0845 273.825 26.5508 273.825 32.4236C273.825 38.6672 272.717 43.252 270.503 46.1781C268.289 49.1042 264.87 50.562 260.246 50.5517C258.197 50.6885 256.146 50.3208 254.27 49.4806C252.394 48.6403 250.751 47.3529 249.482 45.7299C247.053 42.5154 245.822 37.879 245.822 31.8208C245.822 25.7627 246.899 21.4509 249.052 18.5299" fill="white"/>
<path d="M305.271 14.6973C305.763 14.8209 306.025 15.0682 306.025 15.4391C305.916 16.0255 305.631 16.5646 305.21 16.9846C304.687 17.6646 303.98 18.53 303.118 19.4882L291.954 31.9755L301.181 44.1846C303.074 46.5654 304.786 49.0865 306.302 51.7264H308.239H310.146C312.529 51.7264 314.498 51.7264 316.051 51.7264V50.5364L313.544 49.7482C312.804 49.563 312.112 49.2205 311.514 48.7436C310.942 48.2286 310.427 47.6535 309.977 47.0282L297.367 30.3373L308.439 18.0973C309.146 17.3143 309.808 16.6343 310.423 16.0573C311.055 15.4747 311.805 15.037 312.622 14.7746L315.236 14.0018V12.7964C313.329 12.8737 311.299 12.9046 309.085 12.9046C306.871 12.9046 304.795 12.9046 302.934 12.7964V14.0791L305.271 14.6973Z" fill="white"/>
<path d="M285.804 46.2555C285.804 47.1621 285.804 47.9967 285.804 48.7591C285.793 48.9657 285.712 49.1623 285.575 49.3168C285.438 49.4713 285.253 49.5743 285.05 49.6091L281.652 50.6291L281.759 51.8345C284.112 51.8345 286.373 51.8345 288.618 51.8345C290.863 51.8345 293.016 51.8345 295.215 51.8345V50.6291L292.139 49.6709C291.929 49.6156 291.744 49.4911 291.613 49.3173C291.482 49.1436 291.413 48.9307 291.416 48.7127C291.416 47.9864 291.416 47.1673 291.416 46.24V18.0046C291.416 17.2164 291.416 16.4591 291.416 15.8255C291.417 15.6208 291.49 15.4231 291.623 15.2674C291.755 15.1118 291.938 15.0084 292.139 14.9755L295.215 14.0018L295.076 12.7964C292.908 12.8737 290.709 12.9046 288.51 12.9046C286.311 12.9046 284.035 12.9046 281.652 12.7964V14.0018L285.096 15.0837C285.295 15.1451 285.467 15.2709 285.587 15.4415C285.707 15.6121 285.767 15.8178 285.757 16.0264C285.757 16.6446 285.757 17.3246 285.757 18.0818C285.757 18.8391 285.757 19.7046 285.757 20.6473V43.2727C285.757 44.3855 285.757 45.4055 285.757 46.3636" fill="white"/>
<path d="M0 63.8427H326V0H0V63.8427ZM29.217 31.0636C30.3395 23.9391 33.1382 18.7 37.6438 15.2536C41.7457 11.9707 46.8242 10.1642 52.0677 10.1227C55.1721 10.0481 58.2593 10.6067 61.1428 11.7648C64.0263 12.9229 66.6463 14.6566 68.8444 16.8609C71.0496 19.0005 72.7904 21.5756 73.9574 24.4241C75.1245 27.2726 75.6925 30.3329 75.6258 33.4127C75.6814 36.4822 75.1127 39.5308 73.9545 42.3717C72.7964 45.2125 71.0732 47.7857 68.8906 49.9336C66.7563 52.1418 64.1929 53.885 61.3596 55.0548C58.5263 56.2247 55.4838 56.7961 52.4214 56.7336C46.5358 56.852 40.8329 54.6768 36.5074 50.6638C32.1819 46.6507 29.5693 41.1112 29.217 35.2054H21.5283V55.6363H17.0689V11.2509H21.5283V31.0636H29.217ZM107.073 29.0545V33.3972H85.0983V54.8172H80.685V10.4318H85.0983V29.0545H107.073ZM145.639 54.8172H141.026V20.8173L111.901 54.8172H110.917V10.4318H115.33V45.0345L144.547 10.4318H145.531L145.639 54.8172ZM323.57 61.4627H157.495V2.38H323.57V61.4627Z" fill="white"/>
<path d="M52.283 52.422C54.7678 52.4515 57.2331 51.9788 59.5326 51.0319C61.8321 50.0851 63.9188 48.6835 65.6687 46.9104C67.4187 45.1372 68.7962 43.0287 69.7195 40.71C70.6428 38.3913 71.093 35.9098 71.0434 33.4129C71.1132 30.8724 70.6448 28.346 69.6692 26.0013C68.6935 23.6566 67.233 21.5471 65.3845 19.8129C63.659 18.0969 61.6136 16.7399 59.3654 15.8196C57.1172 14.8994 54.7104 14.434 52.283 14.4502C49.8653 14.4379 47.4696 14.913 45.2378 15.8474C43.0059 16.7818 40.9832 18.1565 39.2891 19.8902C37.4578 21.6632 36.0153 23.8012 35.054 26.1671C34.0928 28.533 33.634 31.0747 33.7071 33.6293C33.6388 36.1331 34.0966 38.6233 35.0504 40.9374C36.0043 43.2515 37.4329 45.3375 39.243 47.0592C40.951 48.7818 42.9845 50.1436 45.2239 51.0645C47.4634 51.9855 49.8634 52.447 52.283 52.422Z" fill="white"/>
</svg>
