<svg width="171" height="43" viewBox="0 0 171 43" fill="none" xmlns="http://www.w3.org/2000/svg">
<g clip-path="url(#clip0_63_83)">
<path d="M22.5882 13.6022L17.5209 5.44101L18.0362 4.03693L28.9438 1.66754C29.4591 1.57979 29.7168 1.7553 29.3732 2.28183L23.447 13.5145C23.1894 14.041 22.8458 13.9533 22.5882 13.6022Z" fill="#FF630C"/>
<path d="M22.9317 8.51231V1.75517C22.9317 1.22864 22.7599 0.877615 22.1587 0.78986L14.7725 6.44298e-05C14.1713 -0.0876907 14.0854 0.351085 14.0854 0.78986L14.9443 8.86333C14.9443 9.21435 15.2019 9.56537 15.6313 9.56537H15.8031L22.3305 9.21435C22.7599 9.30211 22.9317 9.03884 22.9317 8.51231Z" fill="#FF630C"/>
<path d="M12.5394 37.296C14.0854 37.296 15.2878 38.5246 15.2878 40.1042C15.2878 41.6838 14.0854 42.9124 12.5394 42.9124C10.9935 42.9124 9.79106 41.6838 9.79106 40.1042C9.79106 38.5246 10.9935 37.296 12.5394 37.296ZM5.75439 36.945C10.0487 35.5409 14.6866 34.1369 18.9809 32.7328C19.5821 32.5573 19.8398 32.294 19.8398 31.2409L20.0974 20.1838L24.993 17.6389C25.4224 17.4634 25.5942 16.8491 25.4224 16.4103C25.2506 15.9716 24.6494 15.796 24.22 15.9716L19.4103 18.5165C18.8091 18.8675 18.4656 19.4818 18.3797 20.1838L18.2938 21.8511L1.03064 23.2552C0.429432 23.2552 0 23.8695 0 24.4838C0 24.6593 0.0858865 24.7471 0.0858865 24.9226L4.12255 36.0675C4.38021 36.7695 5.0673 37.1205 5.75439 36.945ZM20.9563 33.1716C21.7293 33.1716 22.4164 33.8736 22.4164 34.6634C22.4164 35.4532 21.7293 36.1552 20.9563 36.1552C20.1833 36.1552 19.4962 35.4532 19.4962 34.6634C19.4962 33.8736 20.1833 33.1716 20.9563 33.1716Z" fill="#FF630C"/>
<path d="M35.3853 0.263427L34.4405 0.789958L33.1522 0.526692C32.8087 0.438937 32.8087 0.526692 32.8087 0.789958L32.9804 1.75526L31.8639 2.72057C31.6921 2.89608 31.778 3.07159 32.0357 3.07159L33.7534 2.98384L34.6123 3.94914C34.784 4.12465 34.9558 4.0369 35.0417 3.86139L35.557 2.63281L37.4465 2.01853C37.7042 2.01853 37.7042 1.75526 37.4465 1.75526L35.7288 1.22873V0.438937C35.7288 0.000161707 35.557 0.0879168 35.3853 0.263427Z" fill="#FF630C"/>
<path d="M8.41685 12.3734L7.21443 17.7264L1.54593 20.4468C1.11649 20.6224 1.11649 21.0611 1.46004 21.2366L5.92614 23.7815L4.8955 31.3285C4.80961 31.6795 5.15316 31.9428 5.58259 31.504L11.4229 25.3611L17.4349 26.5019C18.2079 26.6775 18.122 26.1509 17.9502 25.8877L15.116 20.0958L19.4962 12.9877C19.7539 12.5489 19.4962 12.1979 19.0668 12.3734L11.8523 15.357L9.01805 12.0224C8.76039 11.6713 8.50273 12.0224 8.41685 12.3734Z" fill="#FF630C"/>
<path d="M4.63788 22.992L5.92618 23.6941L4.89554 31.241C4.80965 31.592 5.1532 31.8553 5.58263 31.4165L11.4229 25.2737L17.435 26.4145C18.2079 26.59 18.1221 26.0635 17.9503 25.8002L16.0608 21.939L4.63788 22.992Z" fill="#FF630C"/>
<path d="M22.9317 8.51246V2.98389L17.5209 4.1247C17.0914 4.21246 17.0914 4.73899 17.2632 5.00225L20.0116 9.39001L22.2446 9.30225C22.7599 9.30225 22.9317 9.03899 22.9317 8.51246Z" fill="#FF630C"/>
<path d="M74.6354 24.9225L76.6108 15.796C75.0648 15.445 73.5189 15.1817 71.9729 15.1817C69.4822 15.1817 67.6786 15.796 66.3044 17.4634C63.9854 20.1838 63.2984 24.2205 62.0959 26.2389C61.5806 27.1164 58.8323 27.6429 58.0593 27.2919C58.0593 27.2919 58.2311 26.1511 58.4887 25.2736L58.9181 23.5185C59.1758 22.3776 59.3476 21.2368 59.4335 20.096C59.4335 16.0593 56.0839 15.2695 53.4214 15.2695C51.446 15.2695 49.5565 15.7083 47.7529 16.498L48.3541 19.5695C49.7283 18.9552 51.1884 18.6042 52.6484 18.6042C54.6238 18.6042 55.225 19.394 55.225 20.5348C55.225 20.6225 55.225 20.9736 55.1391 21.2368H53.6791C50.9307 21.2368 48.44 21.7634 46.8082 23.2552C45.6916 24.3083 45.0904 25.7123 45.1763 27.2919C45.0904 29.4858 46.7223 31.4164 48.9553 31.5042H49.4706C51.3601 31.4164 53.0779 30.4511 54.1085 28.8715C54.3662 30.8021 55.9121 31.5919 57.8016 31.5042C60.2923 31.4164 64.5008 30.6266 65.7891 27.7307C66.9915 25.1858 67.8503 22.2899 69.2245 20.1838C69.654 19.394 70.5128 18.9552 71.3717 18.9552H71.8011L70.4269 25.1858C69.9116 27.3797 70.1693 29.7491 71.2858 31.7674L75.2366 30.2756C74.3777 28.6083 74.2059 26.6776 74.7213 24.9225M54.4521 24.4838C54.0226 26.3266 52.4767 27.6429 50.673 27.8185C49.7283 27.8185 49.213 27.3797 49.213 26.4144C49.213 25.8878 49.3847 25.3613 49.8142 25.0103C50.5013 24.3083 51.7896 23.9572 53.765 23.9572H54.6238L54.4521 24.4838ZM111.051 24.9225L113.027 15.6205H108.99L104.867 20.6225C104.18 21.4123 103.493 22.2021 102.978 23.0797H102.806C101.947 20.5348 101.003 18.0776 99.886 15.6205H96.5364C95.7635 19.6572 94.9046 23.9572 93.874 25.8878C93.3586 26.9409 90.5244 27.9062 89.4937 27.5552C89.5796 26.7654 89.7514 26.0634 89.9232 25.2736L90.3526 23.5185C90.6103 22.3776 90.782 21.2368 90.8679 20.096C90.8679 16.0593 87.5183 15.2695 84.8559 15.2695C82.8805 15.2695 80.991 15.7083 79.1874 16.498L79.7886 19.5695C81.1627 18.9552 82.6228 18.6042 84.0829 18.6042C86.0583 18.6042 86.6595 19.394 86.6595 20.5348C86.6595 20.798 86.6595 20.9736 86.5736 21.2368H85.1135C82.3652 21.2368 79.8744 21.7634 78.2426 23.2552C77.1261 24.3083 76.5249 25.7123 76.6108 27.2919C76.5249 29.4858 78.1567 31.4164 80.3898 31.5042H80.9051C82.7946 31.4164 84.5123 30.4511 85.543 28.8715C85.9724 32.294 92.4139 31.9429 94.9905 30.1878C96.7941 28.9593 97.4812 27.3797 98.1683 25.1858C98.4259 24.3083 98.6836 23.3429 98.8554 22.4654H98.9412C99.7142 24.2205 100.401 26.4144 100.917 27.994H102.72L105.469 24.6593C105.984 24.045 106.757 23.0797 107.186 22.4654H107.272C106.499 25.2736 105.383 28.8715 107.186 31.7674L111.309 30.1878C110.708 28.4327 110.536 26.5899 111.051 24.9225ZM86.1442 24.4838C85.7147 26.3266 84.1688 27.6429 82.3652 27.8185C81.4204 27.8185 80.8192 27.3797 80.8192 26.4144C80.8192 25.8878 80.991 25.3613 81.4204 25.0103C82.1075 24.3083 83.3958 23.9572 85.3712 23.9572H86.23L86.1442 24.4838ZM141.713 15.3572C139.48 14.8307 137.504 15.5327 135.701 18.0776C135.787 16.9368 135.529 15.8838 134.928 14.9185L131.32 16.3225C131.75 17.2878 131.922 18.3409 131.75 19.3062L130.118 27.1164C129.173 27.6429 126.339 27.9062 125.995 27.4674C126.167 26.3266 126.597 24.747 126.94 23.4307C127.198 22.2899 127.37 21.1491 127.456 20.0083C127.456 15.9715 124.106 15.1817 121.443 15.1817C119.468 15.1817 117.579 15.6205 115.775 16.4103L116.376 19.4817C117.75 18.8674 119.21 18.5164 120.671 18.5164C122.646 18.5164 123.247 19.3062 123.247 20.447C123.247 20.5348 123.247 20.8858 123.161 21.1491H121.701C118.953 21.1491 116.462 21.6756 114.916 23.1674C113.8 24.2205 113.198 25.6246 113.284 27.2042C113.198 29.398 114.83 31.3287 117.063 31.4164H117.579C119.468 31.3287 121.186 30.3634 122.216 28.7838C122.131 29.7491 125.394 32.4695 129.517 30.8899L127.799 38.8756H132.093L133.811 30.9776C134.756 31.3287 135.787 31.5042 136.817 31.5042C141.799 31.5042 145.32 27.6429 145.492 22.0266C145.578 19.1307 144.633 16.0593 141.97 15.445M122.56 24.5715C122.131 26.4144 120.585 27.7307 118.781 27.9062C117.836 27.9062 117.321 27.4674 117.321 26.5021C117.321 25.9756 117.493 25.4491 117.922 25.098C118.609 24.396 119.898 24.045 121.873 24.045H122.732L122.56 24.5715ZM141.026 22.3776C140.94 25.2736 139.222 27.8185 136.302 27.8185C135.615 27.8185 135.014 27.6429 134.412 27.4674L135.014 24.045C135.872 19.1307 141.283 16.6736 141.026 22.3776ZM145.835 31.0654H150.13L151.418 25.2736C151.676 23.694 152.277 22.2899 153.136 20.9736C153.823 19.9205 154.853 19.2185 156.142 19.1307C156.915 19.1307 157.258 19.5695 157.258 20.3593C157.258 20.8858 157.172 21.4123 157.001 21.9389L155.025 31.0654H159.319L160.608 25.2736C160.865 23.694 161.467 22.2021 162.411 20.9736C163.098 19.9205 164.129 19.2185 165.417 19.1307C166.104 19.1307 166.534 19.5695 166.534 20.3593C166.534 20.8858 166.448 21.4123 166.276 21.9389L164.988 27.9062C164.644 29.3103 164.73 30.8899 165.417 32.2062L169.454 30.7144C169.111 29.7491 169.025 28.696 169.282 27.6429L170.485 22.1144C170.742 20.9736 170.914 19.8327 171 18.6919C171 16.498 169.54 15.3572 167.393 15.3572C164.988 15.3572 162.841 17.1123 161.552 18.7797H161.467C161.467 16.498 160.178 15.3572 158.117 15.3572C155.798 15.3572 153.651 17.0246 152.449 18.6919H152.363C152.534 17.4634 152.363 16.2348 151.933 15.094L148.154 16.498C148.498 17.4634 148.584 18.4287 148.412 19.394L145.835 31.0654Z" fill="#FF630C"/>
<path d="M43.4586 8.77539C41.9985 8.77539 37.7901 8.77539 36.7594 13.3387L32.8945 31.0652H37.8759L41.2255 15.1815C41.4832 14.0407 41.8267 12.9876 43.6303 13.0754H50.673L51.446 8.77539H43.4586Z" fill="#FF630C"/>
</g>
<defs>
<clipPath id="clip0_63_83">
<rect width="171" height="43" fill="white"/>
</clipPath>
</defs>
</svg>
