<svg width="30" height="31" viewBox="0 0 30 31" fill="none" xmlns="http://www.w3.org/2000/svg">
<path fill-rule="evenodd" clip-rule="evenodd" d="M19.2757 0.0248169C22.0549 0.211007 24.6734 1.43692 26.6413 3.47328C28.6108 5.50665 29.7963 8.21156 29.9761 11.0824C30.1558 13.9532 29.3176 16.7933 27.618 19.072C25.9184 21.3506 23.4739 22.9118 20.7413 23.4636C18.0087 24.0154 15.1751 23.5201 12.7703 22.0702L4.98049 30.1172C4.43332 30.6825 3.69122 31 2.91744 31C2.14365 31 1.40157 30.6823 0.854448 30.117C0.307323 29.5516 -3.20368e-05 28.7849 2.5046e-09 27.9854C3.20418e-05 27.1859 0.307446 26.4191 0.854616 25.8538L8.64241 17.8072C7.23761 15.3225 6.75699 12.394 7.29043 9.56965C7.82388 6.74527 9.33485 4.2184 11.5408 2.46166C13.7467 0.704916 16.4964 -0.161373 19.2757 0.0248169ZM26.3164 11.8441C26.3164 16.2816 22.8348 19.8789 18.54 19.8789C14.2452 19.8789 10.7636 16.2816 10.7636 11.8441C10.7636 7.40658 14.2452 3.80929 18.54 3.80929C22.8348 3.80929 26.3164 7.40658 26.3164 11.8441Z" fill="white" fill-opacity="0.5"/>
</svg>
